SplineFontDB: 3.2
FontName: SkyLuke
FullName: Sky Luke
FamilyName: SkyLuke
Weight: Regular
Copyright: CC-0 public domain\n
UComments: "2020-6-18: Created with FontForge (http://fontforge.org)"
Version: 001.000
ItalicAngle: 0
UnderlinePosition: -83.3333
UnderlineWidth: 41.6667
Ascent: 800
Descent: 200
InvalidEm: 0
LayerCount: 2
Layer: 0 0 "Back" 1
Layer: 1 0 "Fore" 0
XUID: [1021 178 1911899458 7554]
FSType: 0
OS2Version: 0
OS2_WeightWidthSlopeOnly: 0
OS2_UseTypoMetrics: 1
CreationTime: 1592502783
ModificationTime: 1592508953
PfmFamily: 17
TTFWeight: 400
TTFWidth: 5
LineGap: 90
VLineGap: 0
OS2TypoAscent: 0
OS2TypoAOffset: 1
OS2TypoDescent: 0
OS2TypoDOffset: 1
OS2TypoLinegap: 90
OS2WinAscent: 0
OS2WinAOffset: 1
OS2WinDescent: 0
OS2WinDOffset: 1
HheadAscent: 0
HheadAOffset: 1
HheadDescent: 0
HheadDOffset: 1
OS2Vendor: 'PfEd'
Lookup: 258 0 0 "'kern' Horizontal Kerning in Latin lookup 0" { "'kern' Horizontal Kerning in Latin lookup 0-1" [180,18,2] "'kern' Horizontal Kerning in Latin lookup 0-2" [180,18,2] } ['kern' ('DFLT' <'dflt' > 'latn' <'dflt' > ) ]
MarkAttachClasses: 1
DEI: 91125
LangName: 1033 "" "" "" "Sky Luke" "" "" "" "" "" "" "" "" "" "" "" "" "" "" "" "A Jedi acknowledges pride, for quiet humility belies unexorcized vanity."
Encoding: UnicodeFull
UnicodeInterp: none
NameList: AGL For New Fonts
DisplaySize: -72
AntiAlias: 1
FitToEm: 0
WinInfo: 0 25 10
BeginPrivate: 0
EndPrivate
BeginChars: 1114112 79

StartChar: A
Encoding: 65 65 0
Width: 867
VWidth: 833
Flags: W
HStem: -22 135<404.559 537.031 540.265 683.625> -11 108<300.203 683.625> -5 21G<85.5 94.5> -2 106.733<169.005 251.299> 2 111<184.484 537.031 540.265 570.953> 693 20G<432.5 445.5> 693 20G<432.5 445.5>
VStem: 248 105<442.567 527.878>
LayerCount: 2
Fore
SplineSet
169 116 m 0x21
 169 107.397142274 175.395853425 104.733291299 184.039029623 104.733291299 c 0x11
 193.480212893 104.733291299 205.602857726 107.911746161 215 110 c 0
 225 112 237 113 252 113 c 0x09
 289 113 330 110 387 107 c 0
 455 104 497 97 539 97 c 0x41
 566 97 592 99 625 108 c 0
 636 111 648 113 656 113 c 0
 668 113 676 110 684 116 c 0
 691.520199368 121.231443039 694.336524378 127.638854667 694.336524378 134.418278681 c 0
 694.336524378 148.37324543 682.403382911 163.904477849 675 174 c 0
 670 181 656 204 645 225 c 0
 568 372 502 459 421 608 c 4
 403 641 389 671 389 676 c 0
 389 689 400 703 409 708 c 4
 414 711 427 713 438 713 c 0
 453 713 463 709 484 698 c 4
 508 685 511 683 523 660 c 4
 601 510 664 400 748 259 c 0
 774 216 784 193 814 152 c 0
 827 134 841 114 845 106 c 0
 853 93 853 92 847 78 c 0
 844 70 840 57 839 50 c 0
 837 34 805 -10 792 -13 c 0
 758 -20 728 -22 699 -22 c 0x85
 637 -22 582 -11 512 -11 c 0x41
 501 -11 480 -8 466 -5 c 0x21
 454 -2 386 2 296 2 c 0x09
 228 2 160 0 133 -2 c 0x11
 113 -4 99 -5 90 -5 c 0x21
 81 -5 76 -4 73 -2 c 0x11
 69 1 61 9 57 16 c 0
 53 23 42 38 33 49 c 0
 23.4470546428 61.1003974525 16.7332708632 69.144849794 16.7332708632 78.0412118133 c 0
 16.7332708632 83.1138850286 18.9160823334 88.4635344287 24 95 c 0
 28 100 38 119 47 138 c 0
 56 157 71 183 80 195 c 0
 129 260 166 348 208 414 c 0
 221 434 242 463 248 486 c 0
 254.405104166 511.620416663 263.321965028 539.752590022 293.13694062 539.752590022 c 0
 295.906107884 539.752590022 298.85555059 539.509910715 302 539 c 0
 329 535 353 517 353 486 c 0
 353 466 315 398 308 382 c 0
 274 304 222 227 183 151 c 0
 173 131 169 122 169 116 c 0x21
EndSplineSet
Validated: 524289
EndChar

StartChar: B
Encoding: 66 66 1
Width: 677
Flags: W
HStem: -12 133<73.8275 454.9> 309 140<159.286 391.744> 641 114<135.534 451.781>
VStem: 501.67 91.3304<522.984 600.577> 558 103.444<187.059 271.604>
LayerCount: 2
Fore
SplineSet
340 755 m 0xf0
 421 755 492 743 534 705 c 0
 550 690 578 650 587 629 c 0
 592 618 593 606 593 580 c 0xf0
 593 543 591 532 581 508 c 0
 567 475 571 471 552 446 c 0
 543.900570347 435.74072244 539.299847932 430.437946799 539.299847932 425.368750887 c 0
 539.299847932 421.049885919 542.63939163 416.900570347 550 410 c 0
 556 405 571 392 584 382 c 0
 631 348 661 304 661 224 c 0
 661 217.333333333 661.444444444 210.666666667 661.444444444 203.111111111 c 0
 661.444444444 199.333333333 661.333333333 195.333333333 661 191 c 0
 659 148 657 136 651 127 c 0
 642 113 573 46 558 38 c 0
 537 27 507 15 479 9 c 0
 426 -3 343 -12 264 -12 c 0
 212 -12 162 -8 122 2 c 0
 99 8 55 9 41 21 c 0
 28 32 17 55 17 79 c 0
 17 101 22 127 36 133 c 0
 40 135 45 136 53 136 c 0
 62 136 75 135 95 133 c 0
 156 127 221 121 283 121 c 0
 365 121 443 131 503 162 c 0
 520 171 534 182 544 194 c 0
 554 207 558 215 558 224 c 0xe8
 558 243 534 280 522 289 c 0
 502 304 474 309 433 309 c 0
 384 309 315 304 258 304 c 0
 198 304 166 306 146 332 c 0
 140 339 131 378 131 396 c 0
 131 411 150 438 159 444 c 0
 165 448.5 177.1875 449.0625 189.65625 449.0625 c 0
 193.8125 449.0625 198 449 202 449 c 0
 300 449 386 455 452 501 c 0
 470 513 488 529 493 536 c 0
 498.936951095 544.635565229 501.669594162 550.649423889 501.669594162 557.343230702 c 0
 501.669594162 563.051728332 499.682217386 569.254733709 496 578 c 0
 493 585 487 594 482 599 c 0
 448 631 388 641 322 641 c 0
 238 641 142 626 69 622 c 1
 57 633 l 2
 47 643 45 647 43 672 c 0
 42 681 42 687 42 692 c 0
 42 701 43 703 47 707 c 0
 51 711 70 718 90 723 c 0
 153 739 250 755 340 755 c 0xf0
EndSplineSet
Validated: 524289
EndChar

StartChar: C
Encoding: 67 67 2
Width: 836
Flags: W
HStem: -29 143<313.893 585.69> 694 20G<215 224> 694 20G<215 224>
VStem: 17 95<227.154 425.076>
LayerCount: 2
Fore
SplineSet
50 172 m 0xd0
 50 179 28 216 28 226 c 0
 28 254 21 267 18 306 c 0
 17 316 17 324 17 332 c 0
 17 349 18 364 21 383 c 0
 37 483 70 554 113 629 c 0
 135 667 151 685 187 703 c 0
 199 709 213 714 217 714 c 0
 231 714 259 696 265 687 c 0
 270 680 275 661 275 647 c 0
 275 640 274 634 271 628 c 0
 268 621 256 608 245 599 c 0
 234 590 218 576 210 568 c 0
 175 533 112 410 112 311 c 0
 112 279 118 250 134 227 c 0
 186 150 308 114 429 114 c 0
 541 114 653 145 709 204 c 0
 721 217 730 231 733 240 c 0
 736.687154238 254.748616953 745.472473368 270.346928054 761.705672424 270.346928054 c 0
 763.083018528 270.346928054 764.513982632 270.234634321 766 270 c 0
 784 267 808 242 812 225 c 0
 814 217 817 196 821 149 c 1
 802 117 l 2
 763 50 680 -17 586 -27 c 0
 568 -29 546 -29 522 -29 c 0
 367 -29 223 1 133 70 c 0
 105 91 74 116 59 146 c 0
 54 157 50 169 50 172 c 0xd0
EndSplineSet
Validated: 524289
EndChar

StartChar: D
Encoding: 68 68 3
Width: 735
Flags: W
HStem: 552 144<102.649 412.792> 562 134<135.905 412.792>
VStem: 604 115<281.008 445.843>
LayerCount: 2
Fore
SplineSet
210 562 m 0x60
 193 562 154 552 135 552 c 0
 104.422935521 552 81.7814617772 590.235119001 81.7814617772 625.651433608 c 0
 81.7814617772 631.932624879 82.4936290221 638.125153186 84 644 c 0
 86 652 95 667 119 695 c 1
 146 696 l 2
 153 696 161 696 169 696 c 0
 179 696 191 696 198 696 c 0xa0
 391 684 507 677 614 577 c 0
 654 540 668 525 671 514 c 0
 673 506 681 490 689 476 c 0
 704 451 719 399 719 359 c 0
 719 324 715 309 702 281 c 0
 677 226 664 175 622 136 c 0
 610 125 586 106 568 95 c 0
 461 29 358 6 194 -8 c 0
 174 -10 149 -11 117 -11 c 0
 101 -11 84 -11 65 -10 c 1
 50 7 l 2
 36 22 17 48 17 72 c 0
 17 89 28 107 41 112 c 0
 47 114 81 118 115 120 c 0
 292 132 449 143 547 231 c 0
 564 247 573 259 604 322 c 1
 603 366 l 2
 602 408 602 411 588 436 c 0
 530 545 363 557 211 562 c 0
 210 562 l 0x60
EndSplineSet
Validated: 524289
EndChar

StartChar: I
Encoding: 73 73 4
Width: 800
Flags: W
HStem: -0 127<425.964 717.581> 4 120<55.2344 311.148> 508 114<59 297.76>
VStem: 317 99<135.193 502.76>
LayerCount: 2
Fore
SplineSet
225 9 m 0xb0
 177 9 118 4 80 4 c 0
 65 4 60 6 55 9 c 0
 43 16 17 52 17 70 c 0
 17 92 25 117 40 124 c 0x70
 60 133 300 123 312 135 c 0
 316 139 317 151 317 206 c 0
 317 276 315 400 311 440 c 0
 307 486 304 498 298 503 c 0
 293 507 281 508 153 508 c 0
 127 508 96 508 59 508 c 1
 48 519 l 2
 37 530 27 558 27 581 c 0
 27 595 32 617 37 622 c 0
 42 626 69 627 193 628 c 0
 276 629 370 631 401 634 c 0
 484 641 551 655 629 660 c 4
 634 660 642 659 649 656 c 0
 662 650 702 617 706 603 c 0
 708 596 707 588 702 577 c 0
 697 565 691 559 677 551 c 0
 667 545 649 539 639 537 c 0
 571 525 583 517 509 517 c 0
 489 517 464 518 428 519 c 1
 417 508 l 2
 408 498 406 495 408 484 c 0
 409 477 415 393 416 317 c 0
 417 219 416 187 420 168 c 0
 423 153 426 141 426 139 c 0
 426 137 429 134 434 131 c 0
 438 128 443 127 456 127 c 0
 545 127 641 148 713 148 c 0
 719 148 728 145 734 142 c 0
 745 136 780 103 783 90 c 0
 784 85 783 73 780 64 c 0
 775 49 771 46 753 35 c 0
 698 4 656 0 580 -0 c 0
 435 0 372 9 225 9 c 0xb0
EndSplineSet
Validated: 1
EndChar

StartChar: E
Encoding: 69 69 5
Width: 730
Flags: W
HStem: -10 137<135.507 626.743> 267 142<192.369 582.369> 280 140<66 307.251> 561 129<47.1898 557.691 561.515 689.717> 562 138<258.718 673.62>
VStem: 17 112<104 250.678>
LayerCount: 2
Fore
SplineSet
664 561 m 0x94
 647 561 631 562 600 562 c 0x8c
 532 562 422 561 321 561 c 0
 213 561 115 563 90 568 c 0
 72 572 54 578 47 583 c 0
 32 594 30 595 30 620 c 0
 30 642 34 681 39 683 c 0
 48 688 69 690 93 690 c 0x94
 150 690 300 689 357 689 c 0
 369 689 377 689 379 689 c 0
 445 694 490 700 561 700 c 0x8c
 572 700 582 699 594 699 c 0
 652 698 666 696 674 691 c 0
 685 683 715 628 715 611 c 0
 715 592 702 575 690 567 c 0
 684 563 676 561 664 561 c 0x94
34 358 m 0
 34 397 47 420 85 420 c 0xa4
 95 420 110 420 124 418 c 4
 181 412 262 409 337 409 c 0
 353 409 368 410 383 410 c 4
 465 411 529 429 585 429 c 4
 602 429 608 427 618 418 c 4
 630 407 660 363 664 344 c 4
 664.36932394 342.245711284 664.542572632 340.423222481 664.542572632 338.554573026 c 0
 664.542572632 320.184627022 647.799697194 297.353683104 636 291 c 4
 604 273 504 267 426 267 c 0xc4
 394 267 366 268 347 270 c 4
 325 272 240 280 190 280 c 0xa4
 173 280 161 280 155 277 c 4
 149 274 143 269 142 266 c 4
 137 253 129 211 129 180 c 0
 129 165 131 151 136 146 c 0
 151 131 206 127 275 127 c 0
 398 127 564 142 615 142 c 0
 669 142 681 130 698 94 c 0
 703.875632692 80.779826443 711.369533799 67.0202300809 711.369533799 53.1173921972 c 0
 711.369533799 48.0907447131 710.389913222 43.0453723565 708 38 c 0
 700 21 673 6 649 3 c 0
 580 -7 494 -10 409 -10 c 0
 318 -10 227 -6 156 -0 c 0
 128 2 94 6 80 8 c 0
 50 12 39 24 27 43 c 0
 22 51 17 91 17 117 c 0
 17 155 32 195 37 231 c 4
 39 249 40 261 40 274 c 0
 40 292 34 341 34 358 c 0
EndSplineSet
Validated: 524289
EndChar

StartChar: F
Encoding: 70 70 6
Width: 780
Flags: W
HStem: 272 138<180.106 494.76> 280 150<502.283 703.503> 283 137<270.127 605.686> 570 130<29.3494 522.95>
VStem: 36 120<14.4057 118.969> 48 128<122.153 268.903>
LayerCount: 2
Fore
SplineSet
479 700 m 0x10
 513 700 565 701 599 701 c 0
 658 701 687 699 695 697 c 4
 703 695 716 687 724 680 c 4
 735 670 764 618 764 594 c 0
 764 587 753 581 715 563 c 5
 596 561 l 6
 568 561 545 560 527 560 c 0
 439 560 455 570 368 570 c 0
 321 570 90 565 77 565 c 0
 55 565 36 580 27 595 c 4
 20 607 17 631 17 661 c 0
 17 681 20 687 32 704 c 5
 136 705 l 6
 146 705 157 705 166 705 c 0
 301 705 342 700 479 700 c 0x10
33 120 m 0
 33 166 48 208 48 249 c 0
 48 264 46 280 39 294 c 0
 29 315 23 337 19 360 c 0
 19 361 19 362 19 364 c 0
 19 383 37 410 48 419 c 0
 56.8921192654 426.845987587 65.2370427866 429.767213477 74.7520869702 429.767213477 c 0
 83.427953895 429.767213477 93.0766459785 427.338539126 105 424 c 0
 139 415 205 410 266 410 c 0x94
 355 410 382 418 482 420 c 0x34
 542 421 582 430 621 430 c 0
 640 430 660 428 681 422 c 0
 699 417 738 378 743 359 c 0
 745.32455532 350.864056379 746.748517734 344.679397388 746.748517734 339.341131844 c 0
 746.748517734 330.900592906 743.188611699 324.576037586 734 316 c 0
 725 308 711 301 683 292 c 0
 652 282 630 280 607 280 c 0x54
 579 280 549 283 500 283 c 0x34
 387 283 352 272 265 272 c 0
 254 272 241 272 230 272 c 0
 201 272 182 271 180 269 c 0
 178 267 176 260 176 254 c 0x94
 176 235 177 212 177 187 c 0
 177 152 175 116 168 93 c 0
 163 76 157 55 156 46 c 0
 152 17 130 -7 99 -7 c 0
 76 -7 64 5 52 21 c 0
 38 40 43 47 36 69 c 0x98
 34 76 33 98 33 120 c 0
EndSplineSet
Validated: 524289
EndChar

StartChar: G
Encoding: 71 71 7
Width: 926
Flags: W
HStem: -43 135<301.371 550.316> 296 144<450.077 813.672> 679 20G<153.5 168.5> 679 20G<153.5 168.5>
VStem: 17 118<246.34 437.922>
LayerCount: 2
Fore
SplineSet
106 667 m 0xe8
 119 681 142 699 165 699 c 0
 172 699 184 696 192 693 c 0
 201 690 217 676 234 657 c 0
 256 633 262 624 262 615 c 0
 262 593 234 564 219 552 c 0
 208 543 198 530 191 516 c 0
 166 463 135 399 135 332 c 0
 135 299 142 266 161 232 c 0
 170 215 185 193 194 183 c 0
 237 132 328 92 428 92 c 0
 455 92 482 95 510 101 c 0
 633 130 660 176 733 255 c 4
 743.210907152 265.849088849 749.756331398 271.403591279 758.094508975 271.403591279 c 0
 762.821854298 271.403591279 768.125452243 269.61818303 775 266 c 4
 781 263 791 255 796 249 c 4
 801 244 821 230 821 215 c 0
 821 213 821 211 820 209 c 4
 723 14 638 -43 442 -43 c 0
 374 -43 363 -42 336 -35 c 0
 277 -19 268 -14 212 24 c 0
 183 44 144 76 123 95 c 0
 94 122 83 135 76 151 c 0
 37 238 17 290 17 406 c 0
 17 414 17 423 17 432 c 0
 17 447 19 438 22 454 c 0
 25 470 36 504 46 530 c 0
 68 589 70 626 106 667 c 0xe8
531 296 m 0
 522 296 512 295 504 295 c 0
 469 295 452 305 444 332 c 0
 440 346 431 388 431 409 c 0
 431 425 438 431 452 434 c 0
 459 436 508 440 541 440 c 0
 567 440 591 437 611 437 c 0
 643 437 691 442 733 444 c 4
 768 446 798 449 799 450 c 4
 800 451 807 452 814 452 c 4
 853 452 874 423 892 398 c 4
 899 388 906 377 908 372 c 4
 910 367 910 358 908 349 c 4
 902 323 861 313 826 309 c 4
 766 302 671 298 603 294 c 4
 598 294 592 293 587 293 c 0
 564 293 545 296 531 296 c 0
EndSplineSet
Validated: 524289
EndChar

StartChar: H
Encoding: 72 72 8
Width: 654
Flags: W
HStem: 1 21G<592.5 610.5> 323 109<140.193 373.436> 334 116<229.543 508.7> 708.606 20G<42.9609 52.8932> 708.606 20G<42.9609 52.8932>
VStem: 19 112<436.325 696.748> 19 104<88.6566 316.853 436.325 699.759> 523 115<25.471 179.501>
LayerCount: 2
Fore
SplineSet
157 46 m 0xc3
 157 27 140 10 122 10 c 0
 101 10 80 26 65 39 c 0
 56 47 43 62 36 72 c 0
 24 90 23 93 19 155 c 0xc3
 17 180 17 206 17 242 c 0
 17 329 21 458 21 555 c 0
 21 612 20 657 19 666 c 0
 18 675 17 681 17 686 c 0
 17 704.35505646 33.8454048832 728.60600463 52.0762967632 728.60600463 c 0
 53.7101129208 728.60600463 55.3550564604 728.411235885 57 728 c 0
 72 724 99 711 107 700 c 0
 111 695 118 681 122 670 c 0
 129 653 131 524 131 488 c 0
 131 445 131 443 140 436 c 0
 144 433 156 432 172 432 c 0xd5
 222 432 313 443 333 446 c 0
 348 449 362 450 374 450 c 0
 410 450 436 441 478 436 c 0
 519 431 550 436 577 419 c 0
 593 409 598 403 611 378 c 0
 623 353 625 348 625 324 c 0
 625 278 621 231 621 181 c 0
 621 149 622 118 629 91 c 0
 633 75 638 56 638 40 c 0
 638 22 619 1 602 1 c 0
 583 1 557 14 546 24 c 0
 538 31 528 45 523 55 c 0
 515 71 524 266 511 307 c 0
 503 331 473 334 442 334 c 0xa5
 390 334 340 321 282 321 c 0
 251 321 215 323 186 323 c 0
 160 323 140 321 133 317 c 0
 128 314 126 303 124 255 c 0
 123 239 123 225 123 213 c 0
 123 163 131 124 146 85 c 0
 154 63 157 54 157 46 c 0xc3
EndSplineSet
Validated: 524289
EndChar

StartChar: J
Encoding: 74 74 9
Width: 659
Flags: W
HStem: -14 125<149.76 430.781> 643.11 20G<558.116 569.581> 643.11 20G<558.116 569.581>
VStem: 523 120<257.074 614.852>
LayerCount: 2
Fore
SplineSet
17 165 m 0xd0
 17 193.190680084 17.9449636666 210.041796169 39.1253233007 210.041796169 c 0
 39.7333854982 210.041796169 40.3581255838 210.027907583 41 210 c 0
 47 210 57 208 61 205 c 0
 80 194 106 169 126 152 c 0
 152 130 154 126 191 120 c 0
 220 115 259 111 298 111 c 0
 350 111 401 117 431 132 c 0
 438 135 451 145 461 154 c 0
 474 166 483 180 497 210 c 0
 517 252 523 331 523 414 c 0
 523 485 519 559 515 616 c 1
 527 634 l 2
 537.4457593 649.66863895 549.56162912 663.110463872 566.670575652 663.110463872 c 0
 572.492011161 663.110463872 578.8915186 661.5542407 586 658 c 0
 592 655 604 644 612 634 c 0
 632 609 643 527 643 453 c 0
 643 420 640 389 636 365 c 0
 625 305 614 199 614 156 c 0
 614 148 607 131 596 113 c 0
 586 96 568 72 557 59 c 0
 499 -8 454 -12 320 -13 c 4
 308 -13 297 -14 287 -14 c 0
 228 -14 217 -12 193 -6 c 0
 162 2 109 17 85 29 c 0
 71 36 38 71 30 83 c 0
 21 97 17 139 17 165 c 0xd0
EndSplineSet
Validated: 524289
EndChar

StartChar: K
Encoding: 75 75 10
Width: 610
Flags: W
HStem: 266 134<39.2561 101.909> 642.814 20G<505.242 517.404> 642.814 20G<505.242 517.404>
LayerCount: 2
Fore
SplineSet
487 655 m 0xc0
 494.371633324 660.602441326 501.656321083 662.814005634 508.828426045 662.814005634 c 0
 525.979644853 662.814005634 542.487037325 650.166750672 558 641 c 0
 580 627 584 622 589 599 c 0
 590 593 589 584 586 578 c 0
 541 490 378 404 287 356 c 0
 266 345 247 333 245 330 c 0
 243.677072547 328.015608821 243.092484161 326.167947099 243.092484161 324.438926518 c 0
 243.092484161 315.712222849 257.984391179 310.007804411 268 305 c 0
 278 300 300 288 317 278 c 0
 392 234 498 170 560 107 c 0
 574 92 588 77 590 72 c 0
 593.462500866 65.0749982672 594.938673076 58.2918771527 594.938673076 51.8584781721 c 0
 594.938673076 34.1376054356 583.738460472 19.0701915746 572 11 c 0
 563 5 559 3 548 3 c 0
 509 3 490 12 472 34 c 0
 450 61 433 68 398 90 c 0
 350 120 330 139 279 172 c 0
 218 212 123 232 53 266 c 0
 41 272 35 278 27 294 c 0
 20 309 17 320 17 334 c 0
 17 353 17 355 38 377 c 0
 59 399 60 400 79 400 c 0
 96 400 203 449 215 455 c 0
 225 461 239 467 245 470 c 0
 340 509 412 600 487 655 c 0xc0
EndSplineSet
Validated: 524289
EndChar

StartChar: L
Encoding: 76 76 11
Width: 771
Flags: W
HStem: -1 140<144.156 694> 662 20G<48.5 56> 662 20G<48.5 56>
VStem: 20 115<144.151 416.512> 31 104<222.344 293.815 296.213 578.778> 38 101<316.685 637.398>
LayerCount: 2
Fore
SplineSet
29 652 m 0xc4
 29 664 43 682 54 682 c 0
 58 682 67 679 75 675 c 0
 83 671 101 656 139 616 c 1xc4
 135 478 l 2xc8
 133 402 132 320 132 295 c 0
 132 270 133 227 135 199 c 0
 137 164 140 147 144 144 c 0
 147 141 171 140 210 139 c 0
 243 139 366 138 694 136 c 1
 723 107 l 2
 744 86 753 74 755 65 c 0
 755.448757276 62.7562136209 755.651379661 60.1991646534 755.651379661 57.449349268 c 0
 755.651379661 41.8162957828 749.102485448 19.9528996898 744 14 c 0
 742 11 736 7 731 5 c 0
 727 4 543 -1 491 -1 c 0
 443 -1 411 0 397 2 c 0
 386 3 372 4 356 4 c 0
 306 4 236 -1 178 -1 c 0
 103 -1 79 4 49 44 c 0
 39 58 28 79 23 91 c 0
 19 103 17 109 17 116 c 0
 17 121 18 127 20 136 c 0xd0
 26 162 28 454 31 489 c 0xc8
 34 523 38 554 38 580 c 0
 38 604 29 631 29 652 c 0xc4
EndSplineSet
Validated: 524289
EndChar

StartChar: M
Encoding: 77 77 12
Width: 745
Flags: W
VStem: 576 125<41.5496 298.391> 606 108<253.849 495.81>
LayerCount: 2
Fore
SplineSet
621 736 m 4x40
 632 742 643 746 644 746 c 4
 659 746 689 732 699 723 c 4
 709 714 715 703 722 680 c 4
 728 663 730 653 730 643 c 0
 730 628 725 612 721 599 c 4
 718 589 715 558 714 526 c 4x40
 709 399 708 252 701 121 c 4
 698 64 696 47 690 35 c 4
 682.531060304 19.3152266384 667.252212182 2.5147520732 648.33000814 2.5147520732 c 0
 641.917687052 2.5147520732 635.086968851 4.44409145278 628 9 c 4
 612 20 590 48 582 69 c 4
 578 79 576 84 576 92 c 0x80
 576 98 577 106 579 118 c 4
 596 232 600 327 605 437 c 4
 606 450 606 460 606 469 c 0
 606 484 605 492 603 496 c 4
 601 501 595 505 591 505 c 4
 587 505 574 496 562 485 c 4
 532 458 459 392 445 352 c 4
 443 346 438 333 436 325 c 4
 431 305 410 277 383 277 c 0
 380 277 376 277 373 278 c 4
 335 288 309 281 283 302 c 4
 274 309 260 330 247 352 c 4
 235 373 217 401 207 415 c 4
 194 433 49 588 43 604 c 4
 40 613 33 630 27 642 c 4
 21 654 17 666 17 669 c 4
 17 672 20 677 25 680 c 4
 31 684 38 685 49 683 c 4
 116 671 190 576 232 528 c 4
 245 513 266 488 277 472 c 4
 288 456 303 440 308 436 c 4
 317 429 318 429 328 434 c 4
 334 437 355 456 374 476 c 4
 447 553 522 628 587 709 c 4
 595 719 609 730 621 736 c 4x40
EndSplineSet
Validated: 524289
EndChar

StartChar: N
Encoding: 78 78 13
Width: 743
Flags: W
HStem: 629 114<274.598 495.217>
VStem: 16.6864 132.376<20.4472 480.292> 584 143<75.3674 324.627>
LayerCount: 2
Fore
SplineSet
21 94 m 0
 21 113 17 157 17 169 c 0
 17 177 18 233 19 299 c 0
 23 543 75 682 265 731 c 0
 298 739 331 743 365 743 c 0
 411 743 456 735 499 720 c 4
 554 701 578 692 612 656 c 0
 629 638 641 620 655 592 c 0
 697 508 696 397 709 291 c 0
 717 230 719 145 726 87 c 0
 726 84 727 80 727 76 c 0
 727 47 710 21 683 21 c 0
 659 21 628 42 617 57 c 0
 611 65 604 79 600 86 c 0
 588 110 584 271 584 320 c 0
 584 419 571 500 543 576 c 0
 532 605 527 607 497 620 c 0
 481 627 455 629 426 629 c 0
 365 629 290 617 265 603 c 0
 149.259259259 537.259259259 144.972565158 402.074074074 144.972565158 215.702585988 c 0
 144.972565158 200.792866941 145 185.555555556 145 170 c 0
 145 111 146 64 147 57 c 0
 148.368092477 50.7067746036 149.062381225 45.6114225044 149.062381225 41.2632733046 c 0
 149.062381225 29.7201385766 144.169341063 23.4429595586 134 14 c 0
 122.636916615 3.77322495392 106.109046671 -2.25716101204 89.3681817576 -2.25716101204 c 0
 76.6436905758 -2.25716101204 63.7961457693 1.22677504608 53 9 c 0
 38 19 27 30 20 48 c 0
 17.5384615385 53.5384615385 16.6863905325 57.9408284024 16.6863905325 62.0227583068 c 0
 16.6863905325 71.2071005917 21 78.7692307692 21 94 c 0
EndSplineSet
Validated: 524289
EndChar

StartChar: O
Encoding: 79 79 14
Width: 811
Flags: W
HStem: 30 110<250.057 485.069> 615 113<317.622 583.382>
VStem: 17 122<242.061 429.269> 671 124<362.476 537.058>
LayerCount: 2
Fore
SplineSet
397 717 m 0
 442 717 442 728 490 728 c 0
 599 728 672 648 732 593 c 0
 778 552 795 493 795 430 c 0
 795 344 761 253 717 197 c 0
 652 114 608 66 486 37 c 0
 466 32 455 30 427 30 c 0
 414 30 396 30 373 31 c 0
 218 35 148 76 80 161 c 0
 41 210 17 295 17 379 c 0
 17 455 38 541 85 582 c 0
 141 631 247 696 335 711 c 0
 353 714 380 717 397 717 c 0
484 615 m 0
 423 615 386 613 344 602 c 0
 226 572 139 440 139 325 c 0
 139 230 199 146 352 141 c 0
 373 140 394 140 410 140 c 0
 442 140 453 139 471 152 c 0
 478 157 492 166 502 172 c 0
 585 220 671 356 671 465 c 0
 671 548 622 615 484 615 c 0
EndSplineSet
Validated: 33
EndChar

StartChar: P
Encoding: 80 80 15
Width: 646
Flags: W
HStem: -6.57502 21G<152.328 166.891> 610 114<43.4422 274.593> 617 128<112.609 441.881>
VStem: 491 139<516.75 595.716>
LayerCount: 2
Fore
SplineSet
72 409 m 0xb0
 92 409 134 407 154 407 c 0
 180 407 196 409 215 413 c 0
 284 426 354 441 411 467 c 0
 437 479 466 506 480 532 c 0
 488 547 491 556 491 563 c 0
 491 583 470 599 453 603 c 0
 406 615 383 617 296 617 c 0xb0
 237 617 172 616 152 613 c 0
 138 611 125 610 112 610 c 0
 89 610 52 615 43 621 c 0
 31.9127261245 629.711429474 16.4351793208 662.882950976 16.4351793208 687.732661949 c 0
 16.4351793208 694.26090353 17.5033776076 700.214807081 20 705 c 0
 22 709 30 716 37 719 c 0
 45 723 63 724 84 724 c 0xd0
 124 724 151 735 185 739 c 0
 215 743 246 745 276 745 c 0
 420 745 555 703 604 618 c 0
 619 592 630 564 630 528 c 0
 630 470 596 430 560 398 c 0
 478 324 375 315 227 306 c 0
 183 303 175 302 168 296 c 0
 161 290 159 285 161 271 c 0
 171 190 191 111 200 37 c 0
 201 31 201 27 201 24 c 0
 201 4.41763566416 178.298635615 -6.5750232289 155.483669279 -6.5750232289 c 0
 149.171705454 -6.5750232289 142.851046517 -5.73364341253 137 -4 c 0
 113 3 108 9 94 34 c 0
 56 103 62 216 41 301 c 4
 36 323 29 351 26 362 c 0
 23.2782557176 371.299292965 21.8940474797 378.798056639 21.8940474797 384.834664425 c 0
 21.8940474797 405.413082118 37.9797290356 409 72 409 c 0xb0
EndSplineSet
Validated: 524289
EndChar

StartChar: U
Encoding: 85 85 16
Width: 713
Flags: W
HStem: -5 122<251.627 408.305> 659 1G<33 37 579.5 588.5> 659 1G<33 37 579.5 588.5>
VStem: 572 125<310.94 604.335>
LayerCount: 2
Fore
SplineSet
572 645 m 0xd0
 572 656 576 679 583 679 c 4
 594 679 636 657 644 651 c 4
 650 647 658 638 662 632 c 4
 688 590 697 526 697 458 c 0
 697 381 686 299 676 236 c 4
 672 209 670 197 658 183 c 4
 646 170 635 146 626 128 c 4
 621 119 612 107 606 102 c 4
 600 97 582 81 565 65 c 4
 513 16 445 -5 376 -5 c 0
 273 -5 168 41 110 105 c 4
 94 122 79 140 76 146 c 4
 4 269 23 416 17 595 c 4
 17 608 17 618 17 626 c 0
 17 645 18 651 22 654 c 4
 25 657 31 660 35 660 c 4
 39 660 46 658 52 655 c 4
 58 652 72 639 84 627 c 4
 102 608 106 602 108 586 c 4
 130 420 110 266 187 164 c 4
 206 139 221 127 257 121 c 4
 271 119 291 117 301 117 c 0
 325 117 372 127 391 132 c 4
 413 138 473 171 486 186 c 4
 553 265 577 386 577 524 c 0
 577 557 575 620 573 632 c 4
 572 636 572 641 572 645 c 0xd0
EndSplineSet
Validated: 1
EndChar

StartChar: S
Encoding: 83 83 17
Width: 750
Flags: W
HStem: 5 129<207.836 472.574> 669 20G<148.5 167> 669 20G<148.5 167>
VStem: 98 122<586.194 666.648> 601.944 132.056<231.131 304.786>
LayerCount: 2
Fore
SplineSet
98 629 m 0xd8
 98 659 106 663 124 677 c 0
 135 686 142 689 155 689 c 0
 179 689 202 666 212 649 c 0
 218 639 220 629 220 614 c 0
 220 603 222 590 225 586 c 0
 228 582 245 573 264 564 c 0
 328 534 455 504 512 470 c 0
 574 434 650 404 690 344 c 4
 700 329 714 305 721 289 c 0
 728 273 734 254 734 247 c 0
 734 227 719 186 715 168 c 0
 712 153 706 146 673 114 c 0
 648 90 622 70 600 57 c 0
 547 26 450 5 356 5 c 0
 295 5 234 14 189 34 c 0
 162 46 136 48 109 60 c 0
 88 69 48 110 38 130 c 0
 30 145 17 182 17 205 c 0
 17 228 33 244 57 244 c 0
 84 244 107 221 117 201 c 0
 122 190 131 180 138 176 c 0
 145 172 170 163 194 156 c 0
 239 142 289 134 338 134 c 0
 446 134 549 170 590 246 c 0
 596.767292358 258.406702656 601.94443729 268.587198916 601.94443729 277.617588032 c 0
 601.94443729 284.600201409 598.849061464 290.895174417 591 297 c 0
 572 312 545 326 521 340 c 0
 509 347 494 355 489 357 c 0
 438 373 337 412 293 434 c 0
 266 447 190 488 167 507 c 0
 148 523 106 565 101 590 c 0
 100 598 98 616 98 629 c 0xd8
EndSplineSet
Validated: 524289
EndChar

StartChar: T
Encoding: 84 84 18
Width: 755
Flags: W
HStem: 512 121<30.7566 296.186> 680 20G<637.5 640.5> 680 20G<637.5 640.5>
VStem: 333 122<28.7234 423.328> 345 107<155.979 510.669> 355 100<6.7154 134.022>
LayerCount: 2
Fore
SplineSet
298 520 m 0xc8
 261 520 114 512 68 512 c 0
 46 512 43 515 33 530 c 0
 25 542 17 569 17 590 c 0
 17 605 23 621 32 627 c 0
 39 631 53 633 100 633 c 0
 101 633 l 0
 185 633 214 642 295 647 c 0
 379 653 421 656 497 671 c 0
 528 677 571 686 593 691 c 0
 615 696 636 700 639 700 c 0
 642 700 653 695 664 688 c 0
 688 673 713 661 728 639 c 0
 734 630 739 619 739 612 c 0
 739 605 734 593 728 584 c 0
 721 573 711 565 696 558 c 0
 661 541 510 547 469 536 c 0
 464 535 457 530 453 527 c 1
 453 527 452 408 452 308 c 0xc8
 452 240 453 181 454 176 c 0
 456 167 456 158 456 149 c 0
 456 134 450 94 450 79 c 0
 450 67 455 56 455 46 c 0xd0
 455 30 438 3 430 -4 c 0
 424 -9 415 -13 410 -13 c 0
 396 -13 362 19 355 28 c 0xc4
 346 40 342 80 336 96 c 0
 334 102 333 114 333 135 c 0xd0
 333 249 345 328 345 428 c 0
 345 434 345 440 345 447 c 0
 345 493 344 504 338 511 c 0
 332 518 322 520 298 520 c 0xc8
EndSplineSet
Validated: 1
EndChar

StartChar: W
Encoding: 87 87 19
Width: 885
Flags: W
HStem: 629 20G<779 795>
VStem: 17 103<518.837 605.203>
LayerCount: 2
Fore
SplineSet
764 638 m 0
 772 647 774 649 784 649 c 0
 806 649 815 646 835 632 c 0
 847 624 860 612 863 607 c 0
 866 602 869 592 869 584 c 0
 869 574 867 566 860 559 c 0
 855 553 841 536 831 520 c 0
 821 504 810 477 808 470 c 0
 806 463 787 446 777 431 c 0
 744 383 718 333 690 268 c 0
 676 235 660 202 655 195 c 0
 650 188 644 155 641 144 c 4
 638 133 633 116 628 108 c 4
 622 97 613 90 570 68 c 5
 553 74 l 6
 540 79 532 85 517 105 c 4
 506 119 495 138 493 146 c 4
 491 154 481 191 471 208 c 0
 421 294 372 419 306 491 c 0
 280 519 286 534 274 564 c 0
 270.257060132 572.925471993 268.337855026 581.768046952 268.337855026 589.835564886 c 0
 268.337855026 609.788196044 280.077145799 625 305 625 c 0
 320 625 358 603 366 596 c 0
 383 581 402 546 414 522 c 0
 442 467 484 361 521 306 c 0
 531 291 543 277 549 273 c 0
 553.764821223 269.724185409 557.465414886 268.310769049 560.497941462 268.310769049 c 0
 567.648467502 268.310769049 571.084609285 276.16921857 576 286 c 0
 586 306 618 388 631 406 c 0
 638 415 661 444 673 469 c 0
 685 494 700 533 708 545 c 0
 716 557 729 579 738 592 c 0
 747 605 754 618 754 621 c 0
 754 624 758 631 764 638 c 0
17 582 m 0
 17 609 20 617 40 622 c 0
 45.25 623.25 49.8125 623.8125 53.953125 623.8125 c 0
 66.375 623.8125 75 618.75 87 612 c 0
 109 600 112 596 120 568 c 0
 124 556 137 526 150 503 c 0
 163 480 180 441 188 426 c 0
 237 338 295 237 346 150 c 4
 356 133 364 115 364 109 c 4
 364 92 342 74 330 67 c 4
 323.708286934 63.5395578136 318.109322801 62.0583982926 312.922913332 62.0583982926 c 0
 301.622844747 62.0583982926 292.2812152 69.089613493 282 78 c 4
 274 85 258 107 246 128 c 4
 174 248 120 340 55 471 c 0
 18 545 17 559 17 582 c 0
EndSplineSet
Validated: 524289
EndChar

StartChar: Y
Encoding: 89 89 20
Width: 698
Flags: W
HStem: 646 13.3393G<64.9119 75.1141 600 611> 646 13.3393G<64.9119 75.1141 600 611>
VStem: 262.015 115.985<63.1318 288.851> 576 106<551.281 639.371>
LayerCount: 2
Fore
SplineSet
588 659 m 0xb0
 592 663 598 666 602 666 c 0
 620 666 647 652 658 642 c 0
 677 624 682 591 682 556 c 0
 682 491 658 420 627 387 c 0
 579 336 525 303 430 297 c 0
 399 295 384 293 381 289 c 0
 379 286 378 272 378 253 c 0
 378 218 381 163 381 121 c 0
 381 77 381 56 361 37 c 4
 351 27 346 25 333 25 c 0
 318 25 315 27 298 45 c 4
 267 77 261 108 261 174 c 0
 261 199 262 224 262 246 c 0
 262 250.434782609 262.015122873 254.536862004 262.015122873 258.334511383 c 0
 262.015122873 298.209829868 260.347826087 304.52173913 222 310 c 0
 112 325 60 387 17 475 c 1
 20 515 l 2
 22 537 25 572 27 594 c 0
 30 632 29 646 51 656 c 0
 56.0455488499 658.374375929 61.8838937855 659.339336595 67.9398582687 659.339336595 c 0
 82.2882936393 659.339336595 97.8583608852 653.922421062 107 649 c 0
 113 646 124 636 130 627 c 0
 139 614 141 609 141 591 c 0
 141 569 140 548 140 530 c 0
 140 464 152 427 249 423 c 0
 276 422 308 419 320 416 c 0
 329 414 338 414 348 414 c 0
 358 414 369 414 385 416 c 0
 491 427 561 526 576 623 c 0
 579 643 583 655 588 659 c 0xb0
EndSplineSet
Validated: 524289
EndChar

StartChar: Q
Encoding: 81 81 21
Width: 900
Flags: W
HStem: 38 114<253.759 382.859> 589 135<295.173 532.034>
VStem: 17 103<255.535 431.34> 389 107<188.511 339.812> 402 91<-68.3787 27.6271> 406 104<-75.375 5.53753> 795 89<305.605 440.663>
LayerCount: 2
Fore
SplineSet
336 717 m 4xea
 349 721 370 724 384 724 c 0
 420 724 479 715 510 708 c 4xe6
 604 687 699 642 763 591 c 4
 847 524 884 441 884 359 c 0
 884 198 743 42 541 30 c 4
 508 28 493 28 493 6 c 4xea
 493 -3 510 -68 510 -80 c 0xe6
 510 -91 501 -115 496 -118 c 4xf2
 491.689053784 -120.514718626 485.829419463 -121.609806488 479.765631915 -121.609806488 c 0
 468.950189955 -121.609806488 457.485281374 -118.126035856 453 -113 c 4
 443 -102 411 -50 406 -34 c 4xe6
 404 -27 402 -12 402 -1 c 0
 402 15 401 20 393 28 c 4
 385 36 380 38 358 38 c 0
 272 38 187 87 133 126 c 4
 61 178 17 274 17 376 c 0
 17 415 23 455 37 494 c 4
 92 647 178 666 336 717 c 4xea
486 187 m 0
 486 166 490 159 505 159 c 4
 510 159 536 165 562 172 c 4
 645 195 795 268 795 373 c 0
 795 398 786 425 766 454 c 4
 718 521 632 557 536 580 c 4
 504 588 478 591 446 591 c 0
 427 591 401 590 379 589 c 4
 234 583 120 469 120 333 c 0
 120 302 128 260 140 245 c 4
 146 238 160 224 170 213 c 4
 206 177 277 162 342 154 c 4
 356 152 364 152 370 152 c 0
 377 152 380 153 383 156 c 4
 388 161 389 180 389 269 c 4
 389 328 391 378 393 382 c 4
 396.192582404 387.587019206 407.02960161 394.448111213 417.884340612 394.448111213 c 0
 420.629550028 394.448111213 423.375892812 394.009271996 426 393 c 4
 438 388 486 351 492 340 c 4
 494 336 496 332 496 324 c 0xf2
 496 317 495 308 493 294 c 4xea
 490 266 486 219 486 187 c 0
EndSplineSet
Validated: 524289
EndChar

StartChar: R
Encoding: 82 82 22
Width: 695
Flags: W
HStem: 217 137<75.768 230.866> 584 88<38.6394 341.709>
VStem: 401 102<434.562 535.749>
LayerCount: 2
Fore
SplineSet
50 655 m 0
 93 667 137 672 189 672 c 0
 224 672 329 664 352 658 c 0
 444 634 495 593 503 482 c 0
 503 479 503 475 503 472 c 0
 503 461 502 450 500 444 c 0
 482 375 459 347 397 311 c 0
 371 296 349 281 346 278 c 0
 343 274 342 270 344 267 c 0
 346 264 369 253 396 241 c 0
 471 208 528 203 598 166 c 0
 631 149 660 126 673 93 c 0
 677 82 679 74 679 69 c 0
 679 49 660 41 639 41 c 0
 629 41 616 44 607 48 c 0
 525 89 443 102 362 139 c 4
 337 150 301 167 282 176 c 0
 242 195 240 191 204 206 c 0
 185 214 175 216 127 217 c 0
 86 218 68 220 60 224 c 0
 42 233 39 246 31 268 c 0
 27 279 24 297 24 307 c 0
 24 333 33 354 52 363 c 0
 61.4984662432 367.749233122 68.4907974594 370.270790664 75.4749903291 370.270790664 c 0
 81.7261418228 370.270790664 87.9707736742 368.250766878 96 364 c 0
 105 359 140 354 163 354 c 0
 235 354 312 387 358 417 c 0
 381 432 401 452 401 485 c 0
 401 503 398 531 393 536 c 0
 358 571 263 577 196 584 c 0
 195 584 194 584 192 584 c 0
 168 584 71 575 37 575 c 0
 30 575 25 575 25 576 c 0
 21 585 17 612 17 628 c 0
 17 646 32 650 50 655 c 0
EndSplineSet
Validated: 524289
EndChar

StartChar: V
Encoding: 86 86 23
Width: 709
Flags: W
HStem: 53 153.27<374.869 441.5> 651.783 20G<607.239 618.252> 651.783 20G<607.239 618.252>
VStem: 582 111<569.773 644.408>
LayerCount: 2
Fore
SplineSet
594 666 m 0xd0
 597.545773104 670.190459123 603.689171601 671.783292852 610.789035774 671.783292852 c 0
 625.714976302 671.783292852 644.868116113 664.743598934 653 660 c 0
 667 652 693 625 693 606 c 0
 693 600 689 588 683 580 c 0
 677 572 670 554 666 542 c 0
 642 460 611 395 582 317 c 0
 552 237 538 179 500 110 c 0
 490 91 479 77 467 67 c 0
 455 57 446 53 437 53 c 0
 417 53 378 64 366 73 c 0
 348 86 331 118 317 138 c 0
 310 148 297 170 289 187 c 0
 258 253 211 303 176 365 c 0
 161 391 139 416 127 442 c 0
 113 473 79 523 54 548 c 0
 36 566 28 577 23 591 c 0
 19.5366106336 601.77498914 17.4060063676 611.069105946 17.4060063676 619.053311668 c 0
 17.4060063676 631.816946832 22.8508839363 641.233031448 37 648 c 0
 46 652 54 654 66 652 c 0
 81 650 87 645 111 620 c 0
 196 532 234 434 303 329 c 0
 323 299 349 261 362 244 c 0
 375 227 388 212 391 209 c 0
 393.251485127 207.094897201 395.442979895 206.26962085 397.548509805 206.26962085 c 0
 407.600239345 206.26962085 415.692764654 225.078293963 419 235 c 0
 422 246 431 265 438 276 c 0
 500 381 549 520 582 638 c 0
 585 649 591 662 594 666 c 0xd0
EndSplineSet
Validated: 524289
EndChar

StartChar: X
Encoding: 88 88 26
Width: 743
Flags: W
HStem: 298 162<315.444 370.971> 647 20G<74 81 619 630>
LayerCount: 2
Fore
SplineSet
50 655 m 0
 54 661 69 667 79 667 c 0
 83 667 96 663 107 657 c 0
 137 642 165 612 192 592 c 0
 217 573 296 493 320 474 c 0
 330 466 339 460 341 460 c 0
 343 460 353 466 363 474 c 0
 417 517 530 599 593 637 c 0
 603 643 616 649 622 649 c 0
 638 649 688 611 694 600 c 0
 698 594 700 582 700 575 c 0
 700 565 697 559 688 550 c 0
 673 536 591 484 576 470 c 0
 556 451 444 400 444 367 c 0
 444 362 452 350 467 334 c 0
 521 276 624 201 689 152 c 0
 708 137 727 115 727 87 c 0
 727 64 712 54 686 54 c 0
 671 54 659 57 646 63 c 0
 636 68 612 87 593 105 c 0
 528 167 483 190 418 255 c 0
 394 279 373 298 369 298 c 0
 308 298 169 158 122 122 c 0
 111 113 97 104 92 103 c 0
 73 98 57 115 47 128 c 0
 33 145 6 187 20 215 c 0
 49 274 192 331 242 376 c 0
 253 386 258 394 258 401 c 0
 258 410 245 424 184 486 c 0
 133 538 102 565 87 574 c 0
 65 587 47 607 47 636 c 0
 47 644 48 653 50 655 c 0
EndSplineSet
Validated: 33
EndChar

StartChar: Z
Encoding: 90 90 27
Width: 874
Flags: W
HStem: 20 152<31.4504 117.803> 71 130<577.652 838.633> 75 112<357.294 775.729> 550 131<138 433.399> 565 133<362.633 618.93> 690.032 20G<767.478 780.731> 690.032 20G<767.478 780.731>
LayerCount: 2
Fore
SplineSet
796 71 m 0x40
 724 71 652 75 574 75 c 0x20
 409 75 235 66 112 27 c 0
 96 22 85 20 76 20 c 0
 56 20 37 30 30 44 c 0
 26 52 17 100 17 117 c 0
 17 125 18 129 22 137 c 0
 28 150 34 155 69 172 c 0
 118 196 160 204 203 231 c 0
 271 273 325 303 386 351 c 0
 450 401 511 456 575 509 c 0
 595 525 613 541 616 545 c 0
 619 549 620 555 619 559 c 0
 618 563 586 565 542 565 c 0x88
 451 565 311 558 305 558 c 0
 293 557 250 555 138 550 c 1
 130 564 l 2
 117 585 116 604 103 629 c 0
 97 641 92 655 92 660 c 0
 92 666 94 671 99 673 c 0
 103 675 155 679 215 681 c 0x10
 373 686 499 692 662 698 c 0x08
 706 700 741 703 749 706 c 0
 756.849506392 708.78530872 764.121975577 710.031851556 770.833642169 710.031851556 c 0
 790.628312917 710.031851556 805.54493837 699.189012212 816 685 c 0
 829 667 824 660 831 632 c 0
 834 621 835 613 835 608 c 0
 835 603 834 599 832 594 c 0
 829 586 803 557 770 524 c 0
 703 457 660 440 596 389 c 4
 549 351 482 315 443 273 c 0
 438 267 425 258 415 251 c 0
 405 244 385 229 373 218 c 0
 360 206 353 197 353 193 c 0
 353 188 363 187 408 187 c 0x24
 458 187 553 188 583 188 c 0
 653 188 709 201 779 201 c 0
 811 201 824 195 841 177 c 0
 856 162 857 162 858 129 c 0
 858 123 858 117 858 113 c 0
 858 98 856 94 852 89 c 0
 848 85 840 79 834 76 c 0
 827 73 818 71 796 71 c 0x40
EndSplineSet
Validated: 524289
EndChar

StartChar: zero
Encoding: 48 48 28
Width: 738
Flags: W
HStem: -13 113<163.321 534.581> 321 106<306.102 415.661> 598 124<120.09 349.703> 606 127<286.451 547>
VStem: 17 83<243.966 589.31> 287.427 173.573<336.71 400.788> 632 90<210.351 576.304>
LayerCount: 2
Fore
SplineSet
426 733 m 0xde
 466 735 491 736 513 736 c 0
 650 736 709 668 719 535 c 4
 721 505 722 469 722 430 c 0
 722 337 716 230 711 167 c 0
 706 108 702 68 673 39 c 0
 666 32 655 24 649 21 c 0
 591 -3 495 -13 400 -13 c 0
 306 -13 213 -4 154 11 c 0
 82 29 66 67 47 136 c 0
 37 172 40 206 35 246 c 0
 30 285 24 434 19 473 c 0
 17 487 17 496 17 507 c 0
 17 521 18 537 21 563 c 0
 33 664 52 658 92 712 c 0
 98 720 103 720 149 722 c 0xee
 217 725 357 730 426 733 c 0xde
350 605 m 0
 344 598 316 597 285 597 c 0
 261 597 234 598 214 598 c 0xee
 181 598 121 591 120 590 c 0
 118 588 115 575 112 561 c 0
 107 532 100 499 100 464 c 0
 100 418 111 397 111 355 c 0
 111 320 118 282 120 248 c 0
 122 219 129 184 129 156 c 0
 129 145 131 136 136 132 c 0
 159 110 232 100 313 100 c 0
 435 100 576 120 599 147 c 0
 607 157 609 163 609 179 c 0
 610 268 632 359 632 451 c 0
 632 482 630 513 623 544 c 0
 620 560 615 574 612 577 c 0
 609 580 594 587 577 594 c 2
 547 606 l 1
 536 606 525 606 515 606 c 0xde
 390 606 351 606 350 605 c 0
317 427 m 0
 324 427 410 425 416 422 c 0
 422 419 435 406 444 395 c 0
 459 377 461 372 461 355 c 0
 461 331.09567646 451.593964051 302.488334946 427.230165572 302.488334946 c 0
 424.074985828 302.488334946 420.668949879 302.968107847 417 304 c 0
 412 305 327 313 320 321 c 0
 304 338 302 357 294 380 c 0
 290.713664655 388.76356092 287.42732931 397.52712184 287.42732931 405.140465389 c 0
 287.42732931 411.42712184 289.668115805 416.929503018 296 421 c 0
 301 424 310 427 317 427 c 0
EndSplineSet
Validated: 524289
EndChar

StartChar: one
Encoding: 49 49 29
Width: 692
Flags: W
HStem: 20 126<442.296 497.927 501.773 646.757> 20 109<65.6112 301.812 407.826 621.542> 27 102<409.639 580.842> 515 116<81.294 257.164> 529 120<108.471 310.748>
VStem: 301 89<142.197 502.955> 312 89<272.871 509.903>
LayerCount: 2
Fore
SplineSet
124 635 m 0x12
 188 635 242 649 304 649 c 0
 333 649 348 645 364 630 c 0
 371 623 383 606 401 568 c 1
 401 463 l 2x0a
 401 371 390 318 390 264 c 0
 390 232 394 200 405 159 c 4
 410 141 417 129 440 129 c 0x4c
 489 129 537 146 583 146 c 0
 615 146 639 135 656 116 c 0
 671 99 670 93 675 70 c 0
 675.846636068 65.8608903351 676.250807548 62.0580537565 676.250807548 58.5648515813 c 0
 676.250807548 24.92424766 638.766819661 20 598 20 c 0x84
 564 20 538 27 500 27 c 0x24
 456 27 398 18 361 18 c 0
 331 18 270 19 210 20 c 0
 93 22 78 24 65 30 c 0
 44 40 43 43 34 68 c 0
 30 79 24 94 21 101 c 0
 18.1093936807 106.781212639 16.7961209382 111.837704445 16.7961209382 116.178277446 c 0
 16.7961209382 129.591396205 29.3367794111 136.168087973 46.6260396169 136.168087973 c 0
 50.8395843214 136.168087973 55.3351673579 135.777472107 60 135 c 0
 70 133 222 129 260 129 c 0
 293 129 298 131 302 135 c 0
 305 138 307 142 307 150 c 0
 307 156 306 166 305 180 c 0
 303 200 301 239 301 269 c 0x44
 301 352 312 408 312 491 c 0
 312 501 312 508 311 510 c 0
 310 513 303 519 295 523 c 0
 285 528 273 529 259 529 c 0x4a
 220 529 170 515 134 515 c 0
 109 515 83 525 78 544 c 0
 76 552 65 595 65 608 c 0
 65 620 73 628 81 631 c 0
 86 633 105 635 124 635 c 0x12
EndSplineSet
Validated: 524289
EndChar

StartChar: two
Encoding: 50 50 30
Width: 745
Flags: W
HStem: 25 125<67.441 365.891> 63 123<366.475 682.188> 544 130<204.825 499.898>
VStem: 504 128.149<349.376 491>
LayerCount: 2
Fore
SplineSet
504 474 m 0x30
 504 508 503 525 489 544 c 1
 488 544 486 544 485 544 c 0
 433 544 334 550 246 550 c 0
 183 550 125 548 93 537 c 0
 90.9238475875 536.307949196 88.4645477225 535.999045844 85.7493760063 535.999045844 c 0
 68.8476951749 535.999045844 42.0311288741 547.968871126 36 554 c 0
 24 567 20 590 20 615 c 0
 20 629 22 638 34 654 c 1
 192 655 386 670 496 674 c 0
 506 674 512 672 521 662 c 0
 528 655 540 647 550 642 c 0
 560 637 570 630 573 625 c 0
 607 573 603 462 624 395 c 4
 628.303336599 381.611841692 632.149421201 367.766431386 632.149421201 355.868747061 c 0
 632.149421201 342.883609311 627.568138714 332.21851489 614 327 c 0
 608 325 578 322 547 321 c 0
 427 316 312 292 193 292 c 0
 189.117647059 292 185.512110727 291.98615917 182.134541014 291.98615917 c 0
 156.802768166 291.98615917 144.294117647 292.764705882 124 306 c 0
 111 315 101 325 94 337 c 0
 87.9465645404 347.761663039 83.702713321 356.261345778 83.702713321 365.237598569 c 0
 83.702713321 369.606870919 84.7082275797 374.089059099 87 379 c 0
 89 383 101 388 115 392 c 0
 208 417 423 389 495 443 c 0
 502 448 504 451 504 474 c 0x30
608 63 m 0x70
 606 63 604 63 602 63 c 0x70
 547 63 503 61 479 58 c 0
 414 49 277 25 177 25 c 0
 105 25 76 33 42 69 c 0
 27 85 20 95 18 106 c 0
 16.9796663932 111.484293137 16.479873121 116.236576428 16.479873121 120.360585185 c 0
 16.479873121 148.571167624 39.8669182392 147.382625103 80 150 c 0xb0
 207 159 374 164 501 183 c 0
 511 185 548 186 582 186 c 0
 641 186 646 185 664 176 c 0
 683 166 721 137 726 116 c 0
 727.690281997 109.238872012 729.698014353 99.6206907946 729.698014353 91.0803809418 c 0
 729.698014353 84.4629067067 728.492581341 78.4925813413 725 75 c 0
 722 72 714 69 707 67 c 0
 699 65 659 63 608 63 c 0x70
EndSplineSet
Validated: 524289
EndChar

StartChar: three
Encoding: 51 51 31
Width: 751
Flags: W
HStem: 64 98<85.9257 424.492> 332 110<113.508 362.451> 345 95<180.997 442.921> 583 106<60 332.558> 597 108<174.598 621.715>
VStem: 629 106<288.094 586.581>
LayerCount: 2
Fore
SplineSet
66 689 m 0x94
 84 689 102 686 124 686 c 0
 211 686 301 699 375 705 c 0
 390 706 427 707 468 707 c 0
 512 707 618 704 625 702 c 0
 647 696 683 665 697 648 c 0
 724 615 735 566 735 506 c 0
 735 424 715 331 715 246 c 0
 715 224 716 201 720 180 c 0
 722 171 723 166 723 161 c 0
 723 148 701 118 694 112 c 0
 680 99 628 86 604 81 c 0
 589 78 560 74 538 73 c 0
 486 70 215 67 162 65 c 0
 148 64 138 64 130 64 c 0
 113 64 108 66 100 72 c 0
 86 82 59 115 56 135 c 0
 54 145 56 150 62 156 c 0
 68 161 71 163 97 163 c 0
 110 163 136 162 153 162 c 0
 185 162 223 163 245 165 c 0
 326 172 465 172 545 192 c 0
 586 202 602 231 607 282 c 0
 613 344 613 431 621 496 c 0
 625 529 629 560 629 566 c 0
 629 572 626 580 622 584 c 0
 616 590 605 591 547 594 c 0
 507 596 464 597 444 597 c 0x8c
 425 597 387 595 358 593 c 0
 327 590 247 587 60 583 c 1
 47 594 l 2
 35.7899949626 603.715337699 16.2023757295 631.861426629 16.2023757295 654.646948798 c 0
 16.2023757295 662.350514849 18.4413407214 669.441340721 24 675 c 0
 32 683 48 689 66 689 c 0x94
107 440 m 4xa4
 110 441 139 442 177 442 c 0xc4
 233 442 332 441 364 440 c 4
 407 439 412 438 428 429 c 4
 445 419 472 394 476 373 c 4
 476.415075145 370.7170867 476.61479107 368.63876466 476.61479107 366.743803692 c 0
 476.61479107 350.377387282 461.7170867 347.688693641 442 345 c 4xa4
 401 340 235 339 192 335 c 4
 175 333 164 332 156 332 c 0xc4
 135 332 125 342 114 353 c 4
 103.601914117 364.140806304 87.1358583842 385.762651437 87.1358583842 407.213086945 c 0
 87.1358583842 414.643553218 89.1116879846 422.053451346 94 429 c 4
 97 434 103 439 107 440 c 4xa4
EndSplineSet
Validated: 524289
EndChar

StartChar: four
Encoding: 52 52 32
Width: 654
Flags: W
HStem: 224 122<149.475 480.451> 646 20G<524 543.5> 646 20G<524 543.5>
VStem: 36 105<353.097 576.859> 524 114<95.2522 239.675> 532 106<92.2409 239.675 358.147 586.343>
LayerCount: 2
Fore
SplineSet
497 629 m 0xd4
 497 648 515 666 533 666 c 0
 554 666 575 649 590 636 c 0
 599 628 612 613 619 603 c 0
 631 585 631 582 635 520 c 0
 637 495 638 469 638 433 c 0xd4
 638 380 633 232 633 180 c 0
 633 152 635 135 636 126 c 0
 637 117 638 111 638 106 c 0xd8
 638 87.6449435396 620.312324873 63.3939953701 601.942884293 63.3939953701 c 0
 600.296651677 63.3939953701 598.64494354 63.5887641151 597 64 c 0
 582 68 556 81 548 92 c 0
 544 97 536 111 532 122 c 0xd4
 525 139 524 152 524 188 c 0xd8
 524 231 523 233 514 240 c 0
 509 244 503 246 500 245 c 0
 497 244 464 241 425 239 c 0
 386 237 340 233 322 230 c 0
 304 227 281 224 272 224 c 0
 263 224 245 227 233 230 c 0
 206 237 151 243 119 244 c 0
 101 244 93 247 78 256 c 0
 62 266 57 273 44 298 c 0
 32 323 29 327 29 351 c 0
 29 374 31 416 34 427 c 4
 35 433 36 439 36 447 c 0
 36 491 23 529 18 566 c 0
 17 571 17 574 17 577 c 0
 17 595 35 616 52 616 c 0
 71 616 98 603 109 593 c 0
 117 586 127 572 132 562 c 0
 139 547 141 544 141 503 c 0
 141 489 141 462 141 444 c 0
 141 405 142 374 144 368 c 0
 146 361 150 355 154 353 c 0
 160 350 213 346 235 346 c 0
 300 346 412 363 463 370 c 0
 465 370 468 371 470 371 c 0
 478 371 486 368 497 363 c 0
 511 356 516 355 521 358 c 0
 526 361 528 373 530 421 c 0
 531 437 532 450 532 462 c 0
 532 512 524 551 509 590 c 0
 501 612 497 621 497 629 c 0xd4
EndSplineSet
Validated: 524289
EndChar

StartChar: five
Encoding: 53 53 33
Width: 756
Flags: W
HStem: 45 121<91.4843 521.141> 349 127<185.406 510.216> 364 142<403.023 596.223> 567 137<43.8212 262.494> 594 138<291.982 708.609>
VStem: 597 100<207.191 363.455>
LayerCount: 2
Fore
SplineSet
638 594 m 0x8c
 606 594 570 595 525 595 c 0
 372 595 254 594 129 573 c 0
 110 570 89 567 81 567 c 0
 58 567 47 582 37 600 c 0
 28 616 17 647 17 669 c 0
 17 684 23 700 31 704 c 0x94
 36 707 66 709 112 710 c 0
 277 712 423 732 595 732 c 0
 621 732 658 730 672 729 c 0
 695 726 696 726 713 705 c 0
 731 683 740 672 740 641 c 0
 740 619 733 603 717 598 c 0
 711 596 677 594 638 594 c 0x8c
597 337 m 0
 597 352 585 364 570 364 c 0xa4
 548 364 511 359 493 356 c 0
 481 354 424 351 367 349 c 0
 249 345 242 343 164 322 c 0
 141 316 127 313 118 313 c 0
 106 313 94 321 83 333 c 0
 69 347 46 380 46 404 c 0
 46 418 51 428 59 436 c 0
 68 444 78 446 136 455 c 0
 208 466 251 473 319 476 c 0xc4
 367 478 384 485 431 485 c 0
 454 485 474 488 503 496 c 0
 530 503 542 506 561 506 c 0xa4
 582 506 618 502 626 498 c 0
 645 488 677 450 687 429 c 0
 695 411 697 407 697 370 c 0
 697 312 692 245 692 194 c 0
 692 163 699 151 702 126 c 0
 702.395513466 122.361276116 702.590795377 119.01038509 702.590795377 115.923073677 c 0
 702.590795377 79.9812282918 676.123968036 79.7626919206 631 77 c 0
 607 75 581 72 574 70 c 0
 506 50 456 45 391 45 c 0
 350 45 302 47 240 48 c 0
 132 49 101 51 91 55 c 0
 68 65 66 74 53 101 c 0
 46.2253006174 115.165280527 39.4506012349 129.330561054 39.4506012349 141.39334867 c 0
 39.4506012349 148.916767951 42.0858717169 155.622344669 49 161 c 0
 56 166 61 168 112 168 c 0
 154 168 286 166 301 166 c 0
 389 166 512 174 573 206 c 0
 589 214 589 232 591 260 c 0
 593 284 597 314 597 337 c 0
EndSplineSet
Validated: 524289
EndChar

StartChar: six
Encoding: 54 54 34
Width: 764
Flags: W
HStem: 43 104<158.896 526.645> 333 114<126 571> 336 118<126 571> 554 125<494.96 716.11> 560 133.454<55.4746 415.988>
VStem: 17 104<165.187 334.216> 588 99<214.53 332.828>
LayerCount: 2
Fore
SplineSet
49 690 m 4x8e
 52.7823819888 692.521587993 59.4459166981 693.453574484 67.2682791032 693.453574484 c 0x8e
 84.2631744842 693.453574484 106.727977486 689.054404503 117 687 c 4
 148 682 662 684 680 679 c 4
 703 673 722 655 734 635 c 4
 741.67418562 621.744588474 747.888211118 609.46261703 747.888211118 595.777152979 c 0
 747.888211118 589.846189697 746.721120856 583.65162876 744 577 c 4
 738 562 723 554 702 554 c 0x96
 694 554 676 556 661 559 c 4
 628 566 534 571 493 571 c 0
 457 571 190 568 159 564 c 4
 141 562 116 560 103 560 c 0
 71 560 57 576 45 598 c 4
 37 612 28 633 28 651 c 0
 28 662 43 686 49 690 c 4x8e
157 55 m 0
 136 55 107 46 87 46 c 0
 59 46 39 68 33 91 c 4
 31 100 26 111 23 116 c 4
 20 121 17 155 17 217 c 0
 17 262 18 319 21 348 c 4
 25 392 28 407 35 421 c 4
 44.2228195765 438.523357195 54.2962431625 454.345506372 76.9877217226 454.345506372 c 0
 78.8998672189 454.345506372 80.9016128566 454.233154127 83 454 c 4xa6
 94 453 566 448 577 447 c 4xc6
 593 445 602 441 619 428 c 4
 645 408 660 394 675 365 c 4
 684 347 685 340 687 294 c 4
 687 288 687 282 687 276 c 0
 687 207 672 173 672 107 c 0
 672 92 672 84 664 76 c 4
 659 71 649 65 641 62 c 4
 631 58 609 55 560 54 c 4
 523 53 469 51 440 48 c 4
 412 45 382 43 370 43 c 0
 328 43 196 55 157 55 c 0
126 335 m 4
 125 334 121 218 121 196 c 0
 121 172 123 169 127 165 c 4
 131 162 141 158 149 157 c 4
 195 151 218 147 289 147 c 0
 308 147 329 148 353 148 c 4
 537 151 562 152 588 297 c 4
 590 308 589 313 581 322 c 6
 571 333 l 5xc6
 446 335 343 336 236 336 c 0
 173 336 127 336 126 335 c 4
EndSplineSet
Validated: 524289
EndChar

StartChar: seven
Encoding: 55 55 35
Width: 654
Flags: W
HStem: 587 105<50.8049 310.425> 616 114<273.533 528.06>
VStem: 536 83<422.628 605.751> 541 85<195.095 553.126> 554 84<85.3499 392.468>
LayerCount: 2
Fore
SplineSet
620 612 m 0x60
 620 592 619 574 619 554 c 0x60
 619 539 620 524 621 516 c 0
 623 503 625 425 626 344 c 0x50
 627 263 629 196 630 195 c 0
 631 193 638 155 638 145 c 0
 638 129 625 92 618 85 c 0
 612.099049144 79.8366680011 599.66911935 73.0410912676 588.335382422 73.0410912676 c 0
 584.303816768 73.0410912676 580.410954859 73.9009508559 577 76 c 0
 561 86 555 127 554 156 c 0x48
 552 235 545 323 541 420 c 4x50
 539 476 537 536 536 554 c 4
 535 578 533 588 528 595 c 0
 513 614 475 616 441 616 c 0x60
 347 616 215 587 126 587 c 0
 95 587 67 589 50 602 c 0
 38 611 21 647 18 664 c 0
 16 676 17 677 26 684 c 0
 35 690 43 692 75 692 c 0xa0
 223 693 371 730 516 730 c 0
 569 730 579 719 601 686 c 0
 619 659 620 649 620 612 c 0x60
EndSplineSet
Validated: 524289
EndChar

StartChar: eight
Encoding: 56 56 36
Width: 738
Flags: W
HStem: 41 106<158.291 528.851> 332 93<296.091 563.057> 619 98<171.961 541.093>
VStem: 39 83<191.036 319.424 439.798 589.498> 590 97<425.606 574.378> 597 84<202.396 312.388>
LayerCount: 2
Fore
SplineSet
687 571 m 0xf8
 687 532 685 516 685 424 c 1
 703 393 l 2
 714 375 722 358 722 350 c 0
 723 339 721 337 711 334 c 0
 705 332 696 328 681 321 c 1xf4
 681 266 681 168 676 130 c 0
 672 101 669 83 656 72 c 0
 653 70 637 63 619 57 c 0
 569 41 503 41 434 41 c 0
 333 41 218 48 144 65 c 0
 106 74 86 79 65 92 c 0
 61 95 52 108 32 148 c 1
 32 151 32 155 32 158 c 0
 32 230 39 329 39 418 c 0
 39 478 36 533 24 571 c 4
 22 578 17 614 17 629 c 0
 17 645 23 648 38 652 c 0
 57 657 67 671 82 678 c 0
 87 681 111 687 135 692 c 0
 205 706 297 717 384 717 c 0
 462 717 530 705 589 687 c 0
 614 679 622 675 642 656 c 0
 658 641 669 627 677 610 c 0
 685 593 687 586 687 571 c 0xf8
171 597 m 0
 151 592 129 589 125 573 c 0
 123 565 122 551 122 535 c 0
 122 509 124 477 124 462 c 0
 124 455 124 449 128 443 c 0
 135 433 530 425 550 425 c 0
 576 425 577 426 583 436 c 0
 588 443 590 454 590 468 c 0xf8
 590 507 575 562 567 577 c 0
 557 596 532 602 503 608 c 0
 465 616 420 619 374 619 c 0
 301 619 226 611 171 597 c 0
167 324 m 0
 134 319 126 317 126 283 c 0
 126 240 149 171 153 169 c 0
 185 153 235 147 289 147 c 0
 381 147 485 164 530 169 c 0
 563 173 597 221 597 265 c 0xf4
 597 283 591 300 578 313 c 4
 572 319 562 321 518 324 c 0
 465 327 381 332 304 332 c 0
 252 332 203 330 167 324 c 0
EndSplineSet
Validated: 1
EndChar

StartChar: nine
Encoding: 57 57 37
Width: 681
Flags: W
HStem: 24 115<65.6557 380.492> 42 107<195.896 591.301> 255 110<199.065 537.65> 267 98<229.517 512.697> 272 102<142.253 349.344> 610 92<132.359 394.763 399.094 556.905> 617 95<188.111 546.581>
VStem: 26 103.755<379.27 593> 568 93<394.188 594.384>
LayerCount: 2
Fore
SplineSet
185 702 m 0x0d80
 251 702 341 712 398 712 c 0
 421 712 466 710 502 708 c 0
 541 706 578 703 584 701 c 0
 602 695 645 654 654 637 c 0
 660 626 663 621 663 608 c 0
 663 595 661 584 661 567 c 0
 661 527 666 453 666 413 c 0
 666 393 665 377 663 363 c 0
 653 275 595 255 515 255 c 0x2380
 466 255 409 263 351 267 c 0x1180
 316 269 260 271 228 272 c 0
 174 273 166 274 128 285 c 0
 42 311 26 348 26 399 c 0
 26 428 31 461 31 499 c 0
 31 524 29 552 22 581 c 0
 19 595 17 609 17 612 c 0
 17 615 25 626 34 635 c 0
 48 649 51 654 51 667 c 0
 51 680 53 684 77 705 c 1
 148 703 l 2
 160 703 172 702 185 702 c 0x0d80
395 617 m 0
 390 617 382 617 379 616 c 0
 376 615 337 612 292 610 c 0
 247 608 203 604 194 602 c 0
 185 600 167 597 155 596 c 2
 132 593 l 1
 131 495 130 458 130 432 c 0
 130 423.142857143 129.755102041 415.673469388 129.755102041 409.335276968 c 0
 129.755102041 393.489795918 131.285714286 384.714285714 142 379 c 0
 147 376 177 375 224 374 c 0x0d80
 308 373 356 365 431 365 c 0
 540 365 568 389 568 473 c 0
 568 497 564 583 557 595 c 0
 555 598 551 602 547 604 c 0
 540 607 408 617 395 617 c 0
103 139 m 0x8180
 200 146 322 149 465 149 c 0
 536 149 553 148 563 144 c 0
 585 135 605 120 620 101 c 0
 629 89 633 79 633 70 c 0
 633 61 630 55 625 50 c 0
 617 43 612 42 437 42 c 0x4180
 285 42 249 41 207 35 c 0
 167 29 148 24 120 24 c 0
 78 24 60 46 47 76 c 0
 43 86 40 94 40 102 c 0
 40 113 45 124 51 129 c 0
 58 135 67 137 103 139 c 0x8180
EndSplineSet
Validated: 524289
EndChar

StartChar: colon
Encoding: 58 58 38
Width: 564
Flags: W
HStem: 133 148<28.765 333.792> 163 121<184.321 360.996>
VStem: 361 187<206.323 310.5>
LayerCount: 2
Fore
SplineSet
86 281 m 0xa0
 116 281 150 280 194 280 c 0
 248 280 307 281 349 284 c 0
 355 284 361 288 361 295 c 0
 361 326 253 404 234 420 c 4
 222 430 205 444 196 451 c 0
 180 464 166 481 166 507 c 0
 166 516 168 533 171 546 c 0
 176 567 177 568 189 573 c 0
 196 576 205 577 209 576 c 0
 213 575 228 563 241 551 c 0
 298 499 372 433 426 381 c 0
 453 355 518 299 536 268 c 0
 544 254 548 241 548 226 c 0
 548 186.645133319 535.435325596 162.367875922 498.039779306 162.367875922 c 0
 494.576122502 162.367875922 490.899444946 162.576147288 487 163 c 0
 484 163 478 163 471 163 c 0x60
 432 163 356 159 328 154 c 0
 250 141 159 143 79 134 c 0
 76 134 73 133 69 133 c 0
 43 133 36 137 26 158 c 0
 19 172 17 183 17 196 c 0
 17 232 23 266 47 277 c 0
 52 279 69 281 86 281 c 0xa0
EndSplineSet
Validated: 524289
EndChar

StartChar: semicolon
Encoding: 59 59 39
Width: 201
Flags: W
VStem: 17 129<62.416 316.671> 67 118<443.655 743.305>
LayerCount: 2
Fore
SplineSet
67 754 m 0x40
 67 775.861739379 87.7268010911 793.456196181 110.141582953 793.456196181 c 0
 116.435124855 793.456196181 122.861739379 792.06913031 129 789 c 0
 142 782 173 728 179 713 c 0
 183 703 185 697 185 682 c 0x40
 185 615 172 546 167 483 c 4
 162 417 160 437 153 349 c 4
 150 305 147 233 146 187 c 0
 145 141 143 97 141 90 c 0
 139 83 137 70 137 62 c 0
 137 49 134 44 118 29 c 0
 105 16 97 11 89 11 c 0
 68 11 45 48 37 66 c 0
 26 91 20 140 17 172 c 0
 17 175 17 178 17 181 c 0x80
 17 191 19 200 22 211 c 0
 35 251 56 485 65 534 c 0
 70 559 73 647 73 682 c 0
 73 700 72 721 69 736 c 0
 68 743 67 749 67 754 c 0x40
EndSplineSet
Validated: 524289
EndChar

StartChar: question
Encoding: 63 63 40
Width: 485
Flags: W
HStem: 721 110<182.204 336.444>
VStem: 379 90<543.387 672.869>
LayerCount: 2
Fore
SplineSet
68 619 m 0
 60 619 17 660 17 668 c 0
 17 671 25 687 35 705 c 0
 46 725 63 746 78 760 c 0
 117 798 175 831 243 831 c 0
 332 831 373 789 412 737 c 0
 443 695 469 632 469 570 c 0
 469 438 368 332 281 266 c 0
 261 251 242 233 237 227 c 0
 226 212 219 187 214 166 c 0
 210.105722189 151.201744319 195.292356617 130.33732877 178.536761756 130.33732877 c 0
 173.779260127 130.33732877 168.865177632 132.019400119 164 136 c 0
 151 147 122 187 116 207 c 0
 113 218 110 234 110 241 c 0
 110 265 139 312 152 326 c 0
 172 347 215 384 240 401 c 0
 294 437 379 539 379 622 c 0
 379 646 358 685 344 696 c 0
 327 709 291 721 262 721 c 0
 196 721 140 676 104 644 c 0
 88 630 72 619 68 619 c 0
EndSplineSet
Validated: 524289
EndChar

StartChar: period
Encoding: 46 46 41
Width: 310
Flags: W
HStem: -32 332
VStem: 16.6213 116.379<27.2133 157.272> 163 132.366<-5.70553 265>
LayerCount: 2
Fore
SplineSet
169 293 m 0
 173 297 179 300 183 300 c 0
 187 300 199 296 210 290 c 0
 230 280 267 253 273 232 c 0
 281 204 282 73 287 43 c 0
 290.450088583 19.9994094483 295.365774117 3.30105412329 295.365774117 -5.70552629265 c 0
 295.365774117 -19.373798632 280.76201368 -32 267 -32 c 0
 260 -32 250 -30 244 -27 c 0
 227 -18 198 14 190 32 c 0
 166 88 163 195 163 265 c 0
 163 283 164 288 169 293 c 0
17 202 m 0
 17 212.769230769 16.6213017751 221.928994083 16.6213017751 229.450159308 c 0
 16.6213017751 246.372781065 18.5384615385 255 31 255 c 0
 34 255 46 250 56 245 c 0
 68 239 80 229 89 217 c 0
 116 181 115 112 128 56 c 0
 131 43 133 24 133 15 c 0
 133 -7 123 -16 106 -19 c 0
 99 -20 91 -20 87 -18 c 0
 83 -16 69 -4 54 11 c 0
 33 32 25 42 21 57 c 0
 20 60 17 146 17 202 c 0
EndSplineSet
Validated: 524289
EndChar

StartChar: comma
Encoding: 44 44 42
Width: 180
Flags: W
HStem: 4 310
VStem: 17 147<163.623 235.748>
LayerCount: 2
Fore
SplineSet
17 282 m 0
 17 300 31 314 50 314 c 0
 77 314 92 303 109 287 c 0
 119 278 131 263 135 255 c 0
 152 221 164 138 164 78 c 0
 164 47 163 13 145 4 c 0
 139 1 133 3 116 11 c 0
 101 19 90 28 81 41 c 0
 56 76 17 240 17 282 c 0
EndSplineSet
Validated: 1
EndChar

StartChar: hyphen
Encoding: 45 45 43
Width: 421
Flags: W
HStem: 449 110<41.5001 367.988>
LayerCount: 2
Fore
SplineSet
36 557 m 4
 39 558 67 559 105 559 c 0
 161 559 260 558 292 557 c 4
 335 556 341 555 357 546 c 4
 374 536 400 511 404 490 c 4
 404.415075145 487.7170867 404.61479107 485.63876466 404.61479107 483.743803692 c 0
 404.61479107 467.377387282 389.7170867 464.688693641 370 462 c 4
 329 457 164 455 121 451 c 4
 104 449 92 449 84 449 c 0
 63 449 54 458 43 469 c 4
 32.6019141166 480.140806304 16.1358583842 502.31428506 16.1358583842 524.048568701 c 0
 16.1358583842 531.577360436 18.1116879846 539.053451346 23 546 c 4
 26 551 32 556 36 557 c 4
EndSplineSet
Validated: 524289
EndChar

StartChar: quotesingle
Encoding: 39 39 44
Width: 199
Flags: W
VStem: 16.2912 166.16<729.268 791.479> 41 89<506.411 706.806>
LayerCount: 2
Fore
SplineSet
43 825 m 4x80
 45 827 50 828 64 828 c 0
 77 828 98 828 132 826 c 5
 147 810 l 6
 155 801 166 784 172 772 c 4
 178.180339887 758.403252248 182.450849719 750.917960675 182.450849719 743.642425845 c 0
 182.450849719 739.145898034 180.819660113 734.729490169 177 729 c 4
 170 719 144 715 136 707 c 4
 132 703 130 690 130 647 c 0
 130 581 136 535 151 488 c 4
 156.848857802 470.453426595 161.008375476 461.353553828 161.008375476 452.191992373 c 0
 161.008375476 447.256091402 159.801015287 442.302284396 157 436 c 4
 153 427 138 418 126 418 c 4
 111 418 86 450 79 462 c 4
 66 484 60 522 51 548 c 4
 45 566 43 582 41 638 c 4x40
 39 702 38 710 28 736 c 4
 21.1752483471 753.630608437 16.2912148243 766.085968526 16.2912148243 777.96501057 c 0
 16.2912148243 786.972956328 19.0996688705 795.649503306 26 806 c 4
 31 814 40 822 43 825 c 4x80
EndSplineSet
Validated: 524289
EndChar

StartChar: quotedbl
Encoding: 34 34 46
Width: 297
Flags: W
VStem: 90 127<550.88 642.678>
LayerCount: 2
Fore
SplineSet
225 848 m 4
 232 850 240 851 243 849 c 4
 246 847 258 826 269 803 c 4
 278 784 281 767 281 752 c 0
 281 692 228 651 217 585 c 4
 212 556 208 542 184 534 c 4
 177 531 166 530 157 530 c 0
 130 530 111 549 99 566 c 4
 93 575 90 584 90 596 c 0
 90 600 90 605 90 609 c 0
 90 691 49 757 29 819 c 4
 24 835 18 857 17 867 c 4
 16.5317266744 870.434004388 16.3070976904 873.624364434 16.3070976904 876.593898568 c 0
 16.3070976904 892.648728868 22.8730933025 902.248728868 33 909 c 4
 43 916 48 917 59 911 c 4
 71 904 110 834 115 820 c 4
 122 802 136 774 144 758 c 4
 149 747 151 747 158 749 c 4
 164 751 206 826 208 832 c 4
 211 841 215 845 225 848 c 4
EndSplineSet
Validated: 524289
EndChar

StartChar: exclam
Encoding: 33 33 47
Width: 505
Flags: W
HStem: 695 20G<351 367.5> 695 20G<351 367.5>
LayerCount: 2
Fore
SplineSet
86 332 m 0x80
 78 332 66 330 60 330 c 0
 41 330 30 355 24 373 c 4
 20 385 17 398 17 402 c 4
 17 406 31 423 48 439 c 4
 83 472 133 518 170 545 c 4
 182 554 226 596 268 638 c 4
 334 705 346 715 356 715 c 4
 379 715 388 707 405 694 c 4
 415 687 425 677 428 674 c 4
 431.284861983 669.893922521 432.546539295 664.776252707 432.546539295 659.270042033 c 0
 432.546539295 651.366348236 429.946961261 642.662099278 427 635 c 4
 424 628 407 608 390 590 c 4
 343 542 312 522 261 471 c 4
 224 433 172 376 142 343 c 4
 135.0973151 335.330350112 127.606394907 327.660700223 116.369148288 327.660700223 c 0
 112.95481787 327.660700223 109.194630201 328.368754922 105 330 c 4
 101 331 94 332 86 332 c 0x80
401 444 m 4
 403.629094374 444.438182396 406.087518694 444.641693466 408.415781291 444.641693466 c 0
 422.027884756 444.641693466 431.190911979 437.685452813 444 430 c 4
 459 422 489 395 489 376 c 0
 489 370 485 360 481 353 c 4
 477 346 463 334 450 324 c 4
 437 314 391 272 347 230 c 4
 303 188 244 132 215 105 c 4
 186 78 157 54 150 51 c 4
 140 47 135 47 127 51 c 4
 120 54 111 66 99 88 c 4
 89 106 81 124 81 129 c 4
 81 134 83 141 85 145 c 4
 87 149 105 165 125 181 c 4
 145 197 214 262 277 326 c 4
 348 397 396 443 401 444 c 4
EndSplineSet
Validated: 524289
EndChar

StartChar: slash
Encoding: 47 47 48
Width: 356
Flags: W
VStem: 23 98<49.3112 142.156> 232 108<588.173 753.816>
LayerCount: 2
Fore
SplineSet
232 734 m 0
 232 739 232 743 232 747 c 0
 232 771 238 780 255 787 c 0
 261.638422135 789.655368854 268.86442625 790.93971309 275.811208518 790.93971309 c 0
 284.561188507 790.93971309 292.868176233 788.90206967 299 785 c 0
 311 777 334 720 338 703 c 0
 340 697 340 692 340 686 c 0
 340 677 338 665 334 643 c 0
 323 588 305 530 293 477 c 0
 288 456 283 435 281 431 c 0
 279 427 188 401 178 358 c 0
 168 315 155 243 148 198 c 0
 141 153 132 111 129 104 c 0
 126 97 122 84 121 76 c 0
 119 63 116 59 98 46 c 0
 85 36 77 32 70 32 c 0
 48 32 29 73 23 94 c 0
 19 107 17 125 17 143 c 0
 17 148.6 16.9822222222 153.933333333 16.9822222222 159.037925926 c 0
 16.9822222222 192.217777778 17.7333333333 215.733333333 29 240 c 0
 34 251 103 440 107 457 c 0
 111 474 196 532 199 542 c 0
 207 565 227 667 230 696 c 0
 231 707 232 722 232 734 c 0
EndSplineSet
Validated: 524289
EndChar

StartChar: quotedblright
Encoding: 8221 8221 56
Width: 376
Flags: W
VStem: 17 124.639<707.357 781.689>
LayerCount: 2
Fore
SplineSet
17 819 m 0
 17 840 30 853 50 853 c 4
 56 853 69 849 78 844 c 4
 95 834 129 799 138 782 c 4
 141.286570532 775.426858936 141.639387867 765.51990742 141.639387867 754.908778219 c 0
 141.639387867 752.007667517 141.613015123 749.053920236 141.613015123 746.101277062 c 0
 141.613015123 730.279688215 142.370255162 714.48980154 152 707 c 4
 156 704 160 704 164 706 c 4
 168 708 182 723 196 739 c 4
 210 755 237 786 255 808 c 4
 273 830 290 849 294 851 c 4
 298 853 305 853 310 853 c 4
 315 853 323 849 329 843 c 4
 338 833 360 780 360 760 c 0
 360 741 354 733 330 706 c 4
 285 654 211 522 152 494 c 4
 140 488 124 483 118 483 c 4
 100 483 80 499 69 509 c 4
 58 520 40 549 40 570 c 0
 40 581 40 592 40 604 c 0
 40 666 36 734 22 789 c 4
 19 802 17 812 17 819 c 0
EndSplineSet
Validated: 524289
EndChar

StartChar: quotedblleft
Encoding: 8220 8220 57
Width: 376
Flags: W
VStem: 243.884 125.116<707.317 781.735>
LayerCount: 2
Fore
SplineSet
369 819 m 0
 369 812 367 802 364 789 c 4
 350 734 345 666 345 604 c 0
 345 592 346 581 346 570 c 0
 346 549 327 520 316 509 c 4
 305 499 286 483 268 483 c 4
 262 483 246 488 234 494 c 4
 175 522 100 654 55 706 c 4
 31 733 25 741 25 760 c 0
 25 780 47 833 56 843 c 4
 62 849 70 853 75 853 c 4
 80 853 87 853 91 851 c 4
 95 849 113 830 131 808 c 4
 149 786 175 755 189 739 c 4
 203 723 217 708 221 706 c 4
 225 704 230 704 234 707 c 4
 242.564415744 713.661212245 243.884464373 726.887632187 243.884464373 740.862656223 c 0
 243.884464373 747.090448121 243.622312486 753.466907251 243.622312486 759.477262635 c 0
 243.622312486 768.325910556 244.190519401 776.381038802 247 782 c 4
 256 799 290 834 307 844 c 4
 316 849 330 853 336 853 c 4
 356 853 369 840 369 819 c 0
EndSplineSet
Validated: 524289
EndChar

StartChar: quoteleft
Encoding: 8216 8216 58
Width: 214
Flags: W
LayerCount: 2
Fore
SplineSet
97 840 m 0
 92 838 77 837 65 837 c 0
 33.4630516517 836.147650045 16.4561122314 829.483296518 16.4561122314 803.383821713 c 0
 16.4561122314 798.862687411 16.9664496875 793.758351741 18 788 c 0
 23 761 35 737 55 725 c 0
 79 710 84 683 84 649 c 0
 84 611 76 569 76 533 c 0
 76 511 79 492 88 476 c 0
 98 458 115 437 139 434 c 0
 152 433 117 434 126 440 c 4
 133 444 142 453 146 460 c 4
 171 499 187 685 197 746 c 0
 199 758 198 767 194 776 c 0
 187 793 163 821 146 829 c 0
 136.272576263 833.863711869 120.63122924 841.355834087 106.533193454 841.355834087 c 0
 103.239529855 841.355834087 100.030101683 840.946906776 97 840 c 0
EndSplineSet
Validated: 524293
EndChar

StartChar: backslash
Encoding: 92 92 78
Width: 201
Flags: W
VStem: -25 109<584.788 752.223> 194 99<49.3112 142.156>
LayerCount: 2
Fore
SplineSet
84 734 m 0
 84 722 85 707 86 696 c 0
 89 667 108 565 116 542 c 0
 119 532 205 474 209 457 c 0
 213 440 282 251 287 240 c 0
 298.266666667 215.733333333 299.017777778 192.217777778 299.017777778 159.037925926 c 0
 299.017777778 153.933333333 299 148.6 299 143 c 0
 299 125 297 107 293 94 c 0
 287 73 268 32 246 32 c 0
 239 32 230 36 217 46 c 0
 199 59 196 63 194 76 c 0
 193 84 190 97 187 104 c 0
 184 111 175 153 168 198 c 0
 161 243 148 315 138 358 c 0
 128 401 36 427 34 431 c 0
 32 435 27 456 22 477 c 0
 10 530 -7 588 -18 643 c 0
 -22 665 -25 677 -25 686 c 0
 -25 692 -24 697 -22 703 c 0
 -18 720 5 777 17 785 c 0
 23.1318237673 788.90206967 31.4388114933 790.93971309 40.1887914818 790.93971309 c 0
 47.1355737497 790.93971309 54.3615778645 789.655368854 61 787 c 0
 78 780 84 771 84 747 c 0
 84 743 84 739 84 734 c 0
EndSplineSet
Validated: 524289
EndChar
